<?xml version="1.0" encoding="UTF-8" standalone="no"?>
<svg
   width="100"
   height="100"
   viewBox="0 0 100 100"
   version="1.1"
   id="root"
   xmlns="http://www.w3.org/2000/svg"
   xmlns:svg="http://www.w3.org/2000/svg">
  <defs>
    <filter
       style="color-interpolation-filters:sRGB;"
       id="shadow"
       x="-0.034188026"
       y="-0.034188026"
       width="1.0683761"
       height="1.0683761">
      <feFlood
         result="flood"
         in="SourceGraphic"
         flood-opacity="0.5"
         flood-color="rgb(0,0,0)" />
      <feGaussianBlur
         result="blur"
         in="SourceGraphic"
         stdDeviation="1.282051" />
      <feComposite
         result="comp1"
         operator="in"
         in="flood" />
      <feComposite
         result="comp2"
         operator="over"
         in="SourceGraphic" />
    </filter>
  </defs>
  <g id="logo">
    <rect
       style="fill:#a74646;filter:url(#shadow)"
       width="90"
       height="90"
       x="5"
       y="5"
       rx="10" />
    <g style="fill:#1c1c1c" transform="translate(-0.17007874,10.3606299)">
      <path style="fill:#333333"
         d="m 15.458008,48.753164 v -22.90625 h 4.625 v 22.90625 z m 9.015625,-22.90625 h 8.453125 q 2.859375,0 4.359375,0.4375 2.015625,0.59375 3.453125,2.109375 1.4375,1.515625 2.1875,3.71875 0.75,2.1875 0.75,5.40625 0,2.828125 -0.703125,4.875 -0.859375,2.5 -2.453125,4.046875 -1.203125,1.171875 -3.25,1.828125 -1.53125,0.484375 -4.09375,0.484375 h -8.703125 z m 4.625,3.875 v 15.171875 h 3.453125 q 1.9375,0 2.796875,-0.21875 1.125,-0.28125 1.859375,-0.953125 0.75,-0.671875 1.21875,-2.203125 0.46875,-1.546875 0.46875,-4.203125 0,-2.65625 -0.46875,-4.078125 -0.46875,-1.421875 -1.3125,-2.21875 -0.84375,-0.796875 -2.140625,-1.078125 -0.96875,-0.21875 -3.796875,-0.21875 z m 18.625,19.03125 v -22.71875 h 4.625 v 18.859375 h 11.5 v 3.859375 z" />
      <path style="fill:#cccccc"
         d="m 81.801758,40.331289 4.484375,1.421875 q -1.03125,3.75 -3.4375,5.578125 -2.390625,1.8125 -6.078125,1.8125 -4.5625,0 -7.5,-3.109375 -2.9375,-3.125 -2.9375,-8.53125 0,-5.71875 2.953125,-8.875 2.953125,-3.171875 7.765625,-3.171875 4.203125,0 6.828125,2.484375 1.5625,1.46875 2.34375,4.21875 l -4.578125,1.09375 q -0.40625,-1.78125 -1.703125,-2.8125 -1.28125,-1.03125 -3.125,-1.03125 -2.546875,0 -4.140625,1.828125 -1.578125,1.828125 -1.578125,5.921875 0,4.34375 1.5625,6.1875 1.5625,1.84375 4.0625,1.84375 1.84375,0 3.171875,-1.171875 1.328125,-1.171875 1.90625,-3.6875 z" />
    </g>
  </g>
</svg>
