<?xml version="1.0" encoding="UTF-8"?>
<svg version="1.1" viewBox="0 0 550 350" xml:space="preserve" xmlns="http://www.w3.org/2000/svg"><defs><marker id="a" overflow="visible" markerHeight="2" markerWidth="2" orient="auto-start-reverse" preserveAspectRatio="xMidYMid" viewBox="0 0 1 1"><path transform="scale(.7)" d="m-0.21115-4.1056 6.4223 3.2111a1 1 90 0 1 0 1.7889l-6.4223 3.2111a1.2361 1.2361 31.717 0 1-1.7889-1.1056v-6a1.2361 1.2361 148.28 0 1 1.7889-1.1056z" fill="context-stroke" fill-rule="evenodd"/></marker><filter id="b" x="-.034188" y="-.034188" width="1.0684" height="1.0684" color-interpolation-filters="sRGB"><feFlood flood-color="rgb(0,0,0)" flood-opacity=".5" in="SourceGraphic" result="flood"/><feGaussianBlur in="SourceGraphic" result="blur" stdDeviation="1.282051"/><feComposite in="flood" operator="in" result="comp1"/><feComposite in="SourceGraphic" result="comp2"/></filter><filter id="n" x="-.13714" y="-.08" width="1.2743" height="1.16" color-interpolation-filters="sRGB"><feFlood flood-color="rgb(0,0,0)" flood-opacity=".49804" in="SourceGraphic" result="flood"/><feGaussianBlur in="SourceGraphic" result="blur" stdDeviation="4.000000"/><feOffset dx="0.000000" dy="0.000000" in="blur" result="offset"/><feComposite in="flood" in2="offset" operator="in" result="comp1"/><feComposite in="SourceGraphic" in2="comp1" result="comp2"/></filter><filter id="d" x="-.092754" y="-.14372" width="1.1855" height="1.2874" color-interpolation-filters="sRGB"><feFlood flood-color="rgb(0,0,0)" flood-opacity=".49804" in="SourceGraphic" result="flood"/><feGaussianBlur in="SourceGraphic" result="blur" stdDeviation="4.000000"/><feOffset dx="0.000000" dy="0.000000" in="blur" result="offset"/><feComposite in="flood" in2="offset" operator="in" result="comp1"/><feComposite in="SourceGraphic" in2="comp1" result="comp2"/></filter><filter id="c" x="-.3887" y="-.34121" width="1.7774" height="1.6824" color-interpolation-filters="sRGB"><feFlood flood-color="rgb(0,0,0)" flood-opacity=".49804" in="SourceGraphic" result="flood"/><feGaussianBlur in="SourceGraphic" result="blur" stdDeviation="4.000000"/><feOffset dx="0.000000" dy="0.000000" in="blur" result="offset"/><feComposite in="flood" in2="offset" operator="in" result="comp1"/><feComposite in="SourceGraphic" in2="comp1" result="comp2"/></filter><marker id="q" overflow="visible" markerHeight="2" markerWidth="2" orient="auto-start-reverse" preserveAspectRatio="xMidYMid" viewBox="0 0 1 1"><path transform="scale(.7)" d="m-0.21115-4.1056 6.4223 3.2111a1 1 90 0 1 0 1.7889l-6.4223 3.2111a1.2361 1.2361 31.717 0 1-1.7889-1.1056v-6a1.2361 1.2361 148.28 0 1 1.7889-1.1056z" fill="context-stroke" fill-rule="evenodd"/></marker><filter id="m" x="-.192" y="-.48" width="1.384" height="1.96" color-interpolation-filters="sRGB"><feFlood flood-color="rgb(0,0,0)" flood-opacity=".49804" in="SourceGraphic" result="flood"/><feGaussianBlur in="SourceGraphic" result="blur" stdDeviation="4.000000"/><feOffset dx="0.000000" dy="0.000000" in="blur" result="offset"/><feComposite in="flood" in2="offset" operator="in" result="comp1"/><feComposite in="SourceGraphic" in2="comp1" result="comp2"/></filter><filter id="k" x="-.192" y="-.48" width="1.384" height="1.96" color-interpolation-filters="sRGB"><feFlood flood-color="rgb(0,0,0)" flood-opacity=".49804" in="SourceGraphic" result="flood"/><feGaussianBlur in="SourceGraphic" result="blur" stdDeviation="4.000000"/><feOffset dx="0.000000" dy="0.000000" in="blur" result="offset"/><feComposite in="flood" in2="offset" operator="in" result="comp1"/><feComposite in="SourceGraphic" in2="comp1" result="comp2"/></filter><filter id="l" x="-.192" y="-.48" width="1.384" height="1.96" color-interpolation-filters="sRGB"><feFlood flood-color="rgb(0,0,0)" flood-opacity=".49804" in="SourceGraphic" result="flood"/><feGaussianBlur in="SourceGraphic" result="blur" stdDeviation="4.000000"/><feOffset dx="0.000000" dy="0.000000" in="blur" result="offset"/><feComposite in="flood" in2="offset" operator="in" result="comp1"/><feComposite in="SourceGraphic" in2="comp1" result="comp2"/></filter><marker id="v" overflow="visible" markerHeight="2" markerWidth="2" orient="auto-start-reverse" preserveAspectRatio="xMidYMid" viewBox="0 0 1 1"><path transform="scale(.7)" d="m-0.21115-4.1056 6.4223 3.2111a1 1 90 0 1 0 1.7889l-6.4223 3.2111a1.2361 1.2361 31.717 0 1-1.7889-1.1056v-6a1.2361 1.2361 148.28 0 1 1.7889-1.1056z" fill="context-stroke" fill-rule="evenodd"/></marker><marker id="u" overflow="visible" markerHeight="2" markerWidth="2" orient="auto-start-reverse" preserveAspectRatio="xMidYMid" viewBox="0 0 1 1"><path transform="scale(.7)" d="m-0.21115-4.1056 6.4223 3.2111a1 1 90 0 1 0 1.7889l-6.4223 3.2111a1.2361 1.2361 31.717 0 1-1.7889-1.1056v-6a1.2361 1.2361 148.28 0 1 1.7889-1.1056z" fill="context-stroke" fill-rule="evenodd"/></marker><marker id="r" overflow="visible" markerHeight="2" markerWidth="2" orient="auto-start-reverse" preserveAspectRatio="xMidYMid" viewBox="0 0 1 1"><path transform="scale(.7)" d="m-0.21115-4.1056 6.4223 3.2111a1 1 90 0 1 0 1.7889l-6.4223 3.2111a1.2361 1.2361 31.717 0 1-1.7889-1.1056v-6a1.2361 1.2361 148.28 0 1 1.7889-1.1056z" fill="context-stroke" fill-rule="evenodd"/></marker><filter id="o" x="-.13714" y="-.096" width="1.2743" height="1.192" color-interpolation-filters="sRGB"><feFlood flood-color="rgb(0,0,0)" flood-opacity=".49804" in="SourceGraphic" result="flood"/><feGaussianBlur in="SourceGraphic" result="blur" stdDeviation="4.000000"/><feOffset dx="0.000000" dy="0.000000" in="blur" result="offset"/><feComposite in="flood" in2="offset" operator="in" result="comp1"/><feComposite in="SourceGraphic" in2="comp1" result="comp2"/></filter><filter id="e" x="-.076687" y="-.076687" width="1.1534" height="1.1534" color-interpolation-filters="sRGB"><feFlood flood-color="rgb(0,0,0)" flood-opacity=".49804" in="SourceGraphic" result="flood"/><feGaussianBlur in="SourceGraphic" result="blur" stdDeviation="4.000000"/><feOffset dx="0.000000" dy="0.000000" in="blur" result="offset"/><feComposite in="flood" in2="offset" operator="in" result="comp1"/><feComposite in="SourceGraphic" in2="comp1" result="comp2"/></filter><filter id="j" x="-.192" y="-.48" width="1.384" height="1.96" color-interpolation-filters="sRGB"><feFlood flood-color="rgb(0,0,0)" flood-opacity=".49804" in="SourceGraphic" result="flood"/><feGaussianBlur in="SourceGraphic" result="blur" stdDeviation="4.000000"/><feOffset dx="0.000000" dy="0.000000" in="blur" result="offset"/><feComposite in="flood" in2="offset" operator="in" result="comp1"/><feComposite in="SourceGraphic" in2="comp1" result="comp2"/></filter><marker id="p" overflow="visible" markerHeight="2" markerWidth="2" orient="auto-start-reverse" preserveAspectRatio="xMidYMid" viewBox="0 0 1 1"><path transform="scale(.7)" d="m-0.21115-4.1056 6.4223 3.2111a1 1 90 0 1 0 1.7889l-6.4223 3.2111a1.2361 1.2361 31.717 0 1-1.7889-1.1056v-6a1.2361 1.2361 148.28 0 1 1.7889-1.1056z" fill="context-stroke" fill-rule="evenodd"/></marker><filter id="i" x="-.12" y="-.32" width="1.24" height="1.64" color-interpolation-filters="sRGB"><feFlood flood-color="rgb(0,0,0)" flood-opacity=".49804" in="SourceGraphic" result="flood"/><feGaussianBlur in="SourceGraphic" result="blur" stdDeviation="4.000000"/><feOffset dx="0.000000" dy="0.000000" in="blur" result="offset"/><feComposite in="flood" in2="offset" operator="in" result="comp1"/><feComposite in="SourceGraphic" in2="comp1" result="comp2"/></filter><filter id="h" x="-.08" y="-.24" width="1.16" height="1.48" color-interpolation-filters="sRGB"><feFlood flood-color="rgb(0,0,0)" flood-opacity=".49804" in="SourceGraphic" result="flood"/><feGaussianBlur in="SourceGraphic" result="blur" stdDeviation="4.000000"/><feOffset dx="0.000000" dy="0.000000" in="blur" result="offset"/><feComposite in="flood" in2="offset" operator="in" result="comp1"/><feComposite in="SourceGraphic" in2="comp1" result="comp2"/></filter><marker id="t" overflow="visible" markerHeight="2" markerWidth="2" orient="auto-start-reverse" preserveAspectRatio="xMidYMid" viewBox="0 0 1 1"><path transform="scale(.7)" d="m-0.21115-4.1056 6.4223 3.2111a1 1 90 0 1 0 1.7889l-6.4223 3.2111a1.2361 1.2361 31.717 0 1-1.7889-1.1056v-6a1.2361 1.2361 148.28 0 1 1.7889-1.1056z" fill="context-stroke" fill-rule="evenodd"/></marker><marker id="s" overflow="visible" markerHeight="2" markerWidth="2" orient="auto-start-reverse" preserveAspectRatio="xMidYMid" viewBox="0 0 1 1"><path transform="scale(.7)" d="m-0.21115-4.1056 6.4223 3.2111a1 1 90 0 1 0 1.7889l-6.4223 3.2111a1.2361 1.2361 31.717 0 1-1.7889-1.1056v-6a1.2361 1.2361 148.28 0 1 1.7889-1.1056z" fill="context-stroke" fill-rule="evenodd"/></marker><filter id="g" x="-.16" y="-.32" width="1.32" height="1.64" color-interpolation-filters="sRGB"><feFlood flood-color="rgb(0,0,0)" flood-opacity=".49804" in="SourceGraphic" result="flood"/><feGaussianBlur in="SourceGraphic" result="blur" stdDeviation="4.000000"/><feOffset dx="0.000000" dy="0.000000" in="blur" result="offset"/><feComposite in="flood" in2="offset" operator="in" result="comp1"/><feComposite in="SourceGraphic" in2="comp1" result="comp2"/></filter><filter id="f" x="-.13714" y="-.32" width="1.2743" height="1.64" color-interpolation-filters="sRGB"><feFlood flood-color="rgb(0,0,0)" flood-opacity=".49804" in="SourceGraphic" result="flood"/><feGaussianBlur in="SourceGraphic" result="blur" stdDeviation="4.000000"/><feOffset dx="0.000000" dy="0.000000" in="blur" result="offset"/><feComposite in="flood" in2="offset" operator="in" result="comp1"/><feComposite in="SourceGraphic" in2="comp1" result="comp2"/></filter></defs><g transform="translate(105.72 119.64)"><rect x="5" y="5" width="90" height="90" rx="10" fill="#a74646" filter="url(#b)"/><g transform="translate(-.17008 5.3606)"><path d="m15.458 48.753v-22.906h4.625v22.906zm9.0156-22.906h8.4531q2.8594 0 4.3594 0.4375 2.0156 0.59375 3.4531 2.1094t2.1875 3.7188q0.75 2.1875 0.75 5.4062 0 2.8281-0.70312 4.875-0.85938 2.5-2.4531 4.0469-1.2031 1.1719-3.25 1.8281-1.5312 0.48438-4.0938 0.48438h-8.7031zm4.625 3.875v15.172h3.4531q1.9375 0 2.7969-0.21875 1.125-0.28125 1.8594-0.95312 0.75-0.67188 1.2188-2.2031 0.46875-1.5469 0.46875-4.2031t-0.46875-4.0781-1.3125-2.2188-2.1406-1.0781q-0.96875-0.21875-3.7969-0.21875zm18.625 19.031v-22.719h4.625v18.859h11.5v3.8594z" fill="#333"/><path d="m81.802 40.331 4.4844 1.4219q-1.0312 3.75-3.4375 5.5781-2.3906 1.8125-6.0781 1.8125-4.5625 0-7.5-3.1094-2.9375-3.125-2.9375-8.5312 0-5.7188 2.9531-8.875 2.9531-3.1719 7.7656-3.1719 4.2031 0 6.8281 2.4844 1.5625 1.4688 2.3438 4.2188l-4.5781 1.0938q-0.40625-1.7812-1.7031-2.8125-1.2812-1.0312-3.125-1.0312-2.5469 0-4.1406 1.8281-1.5781 1.8281-1.5781 5.9219 0 4.3438 1.5625 6.1875t4.0625 1.8438q1.8438 0 3.1719-1.1719t1.9062-3.6875z" fill="#ccc"/></g><path transform="matrix(1 0 0 .64444 1.2026 12.732)" d="m21.41 77.262 1.2946 0.32699q-0.40706 1.5949-1.4681 2.4357-1.0544 0.83415-2.5825 0.83415-1.5815 0-2.5759-0.64063-0.98763-0.6473-1.5081-1.8685-0.51384-1.2212-0.51384-2.6226 0-1.5282 0.58057-2.6626 0.58724-1.1411 1.6616-1.7284 1.0811-0.59392 2.3757-0.59392 1.4681 0 2.4691 0.7474t1.3947 2.1021l-1.2746 0.30029q-0.34033-1.0677-0.98763-1.5549-0.6473-0.48714-1.6283-0.48714-1.1278 0-1.8885 0.54053-0.75407 0.54053-1.061 1.4548-0.30697 0.90756-0.30697 1.8752 0 1.2479 0.36035 2.1821 0.36703 0.92757 1.1344 1.388 0.76742 0.46045 1.6616 0.46045 1.0877 0 1.8418-0.62728 0.75407-0.62728 1.021-1.8618zm2.4958-1.3346q0-2.4357 1.3079-3.8104 1.3079-1.3814 3.3766-1.3814 1.3547 0 2.4424 0.6473 1.0877 0.6473 1.655 1.8084 0.57389 1.1545 0.57389 2.6226 0 1.4881-0.60059 2.6626t-1.7017 1.7817q-1.1011 0.60059-2.3757 0.60059-1.3814 0-2.4691-0.66732-1.0877-0.66732-1.6483-1.8218-0.56055-1.1545-0.56055-2.4424zm1.3346 0.02002q0 1.7684 0.94759 2.7894 0.95427 1.0143 2.389 1.0143 1.4614 0 2.4023-1.0277 0.94759-1.0277 0.94759-2.9162 0-1.1945-0.40706-2.082-0.40039-0.89421-1.1812-1.3814-0.77409-0.49382-1.7417-0.49382-1.3747 0-2.369 0.94759-0.98763 0.94092-0.98763 3.1497zm9.6494 4.7446v-9.7829h1.9486l2.3156 6.9268q0.32031 0.96761 0.46712 1.4481 0.16683-0.53386 0.52051-1.5682l2.3423-6.8067h1.7417v9.7829h-1.2479v-8.188l-2.8428 8.188h-1.1678l-2.8294-8.3281v8.3281zm11.425 0v-9.7829h3.6903q0.97429 0 1.4881 0.09342 0.7207 0.12012 1.2078 0.46045 0.48714 0.33366 0.78076 0.94092 0.30029 0.60726 0.30029 1.3346 0 1.2479-0.79411 2.1154-0.79411 0.86084-2.8695 0.86084h-2.5091v3.9772zm1.2946-5.1317h2.5291q1.2546 0 1.7817-0.46712 0.52718-0.46712 0.52718-1.3146 0-0.61393-0.31364-1.0477-0.30697-0.44043-0.81413-0.58057-0.32699-0.08675-1.2078-0.08675h-2.5024zm8.0412 5.1317v-9.7829h1.2946v9.7829zm3.5234 0v-9.7829h1.2946v8.6284h4.818v1.1545zm7.6808 0v-9.7829h7.0736v1.1545h-5.779v2.9963h5.412v1.1478h-5.412v3.3299h6.0059v1.1545zm9.1089 0v-9.7829h4.3376q1.3079 0 1.9886 0.26693 0.68067 0.26025 1.0877 0.92757 0.40706 0.66732 0.40706 1.4748 0 1.041-0.67399 1.755-0.67399 0.71403-2.082 0.90756 0.51384 0.24691 0.78076 0.48714 0.56722 0.52051 1.0744 1.3013l1.7017 2.6626h-1.6283l-1.2946-2.0353q-0.56722-0.88086-0.93425-1.348-0.36703-0.46712-0.66065-0.65397-0.28695-0.18685-0.58724-0.26026-0.22022-0.04671-0.7207-0.04671h-1.5015v4.3442zm1.2946-5.4653h2.7827q0.88754 0 1.388-0.18018 0.50049-0.18685 0.76074-0.58724 0.26026-0.40706 0.26026-0.88086 0-0.69401-0.50716-1.1411-0.50049-0.4471-1.5882-0.4471h-3.0964z" fill="#ccc"/></g><g transform="translate(57.827 11.132)"><rect transform="matrix(1.0484 0 0 1 211.68 -6.1646)" x="44.53" y="25.976" width="70" height="120" rx="3.6636" fill="#fff" filter="url(#n)"/><rect transform="matrix(1.0484 0 0 1 360.59 -23.042)" x="44.53" y="25.976" width="50" height="20" rx="3.6636" fill="#fff" filter="url(#m)"/><rect x="-41.437" y="13.606" width="103.5" height="66.795" rx="5" fill="#fff" filter="url(#d)"/><path d="m-33.854 19.571v3.1328h0.80859q0.28906 0 0.41016 0.11328 0.125 0.10938 0.125 0.28906 0 0.17578-0.125 0.28906-0.12109 0.10938-0.41016 0.10938h-2.418q-0.28906 0-0.41406-0.10938-0.12109-0.11328-0.12109-0.29297 0-0.17578 0.12109-0.28516 0.125-0.11328 0.41406-0.11328h0.80859v-3.1328h-0.80859q-0.28906 0-0.41406-0.10938-0.12109-0.11328-0.12109-0.29297 0-0.17969 0.12109-0.28906 0.125-0.11328 0.41406-0.11328l2.418 0.0039q0.28906 0 0.41016 0.10938 0.125 0.10938 0.125 0.28906 0 0.17969-0.125 0.29297-0.12109 0.10938-0.41016 0.10938zm2.3794 3.1328v-3.1328q-0.25391-0.0039-0.375-0.11328-0.12109-0.11328-0.12109-0.28906 0-0.17969 0.12109-0.28906 0.125-0.11328 0.41406-0.11328l1.6758 0.0039q0.39062 0 0.76172 0.14453 0.375 0.14453 0.60156 0.36719 0.17188 0.16797 0.35547 0.46094 0.1875 0.29297 0.28125 0.58203 0.09375 0.28906 0.09375 0.70703v0.38281q0 0.50781-0.17188 0.90234-0.17188 0.39062-0.45312 0.64062-0.27734 0.24609-0.52344 0.36328-0.39062 0.18359-1.0117 0.18359h-1.6094q-0.28906 0-0.41406-0.10938-0.12109-0.11328-0.12109-0.29297 0-0.17578 0.12109-0.28906 0.125-0.11328 0.375-0.10938zm0.80078 0h0.85156q0.47656 0 0.71875-0.13672 0.31641-0.17969 0.47656-0.45703 0.16016-0.27734 0.16016-0.71875v-0.37891q0-0.37891-0.14453-0.66406-0.22656-0.44531-0.51172-0.60938-0.28125-0.16797-0.70703-0.16797h-0.84375zm5.227-3.1328v3.1328h1.7266v-0.75781q0-0.28906 0.10938-0.41016 0.11328-0.125 0.29297-0.125 0.17578 0 0.28516 0.125 0.11328 0.12109 0.11328 0.41016v1.5586h-3.793q-0.28906 0-0.41406-0.10938-0.12109-0.11328-0.12109-0.29297 0-0.17578 0.12109-0.28516 0.125-0.11328 0.41406-0.11328h0.46484v-3.1328h-0.46484q-0.28906 0-0.41406-0.10938-0.12109-0.11328-0.12109-0.29297 0-0.17969 0.12109-0.28906 0.125-0.11328 0.41406-0.11328l1.7344 0.0039q0.28906 0 0.41016 0.10938 0.125 0.10938 0.125 0.28906 0 0.17969-0.125 0.29297-0.12109 0.10938-0.41016 0.10938zm9.4697 1.1875v1.9453h1.1406q0.28906 0 0.41016 0.11328 0.125 0.10938 0.125 0.28906 0 0.17578-0.125 0.28906-0.12109 0.10938-0.41016 0.10938h-2.418q-0.28906 0-0.41406-0.10938-0.12109-0.11328-0.12109-0.29297 0-0.17578 0.12109-0.28516 0.125-0.11328 0.41406-0.11328h0.47656v-1.9453h-0.38281q-0.28906 0-0.41406-0.10938-0.12109-0.11328-0.12109-0.29297 0-0.17578 0.12109-0.28516 0.125-0.11328 0.41406-0.11328h0.38281v-0.30469q0-0.52344 0.39062-0.86719 0.39453-0.34766 1.1406-0.34766 0.33203 0 0.76562 0.0625 0.4375 0.05859 0.55859 0.16797 0.125 0.10938 0.125 0.28125 0 0.18359-0.10938 0.30078-0.10938 0.11328-0.26953 0.11328-0.07422 0-0.22266-0.02734-0.49609-0.09766-0.87891-0.09766-0.39844 0-0.55078 0.12109-0.14844 0.11719-0.14844 0.29297v0.30469h1.2344q0.28906 0 0.41016 0.11328 0.125 0.10938 0.125 0.28906 0 0.17578-0.125 0.28906-0.12109 0.10938-0.41016 0.10938zm4.8638-2.3203v0.84766h-0.95312v-0.84766zm0.10938 1.5195v2.7461h0.96094q0.28906 0 0.41016 0.11328 0.125 0.10938 0.125 0.28906 0 0.17578-0.125 0.28906-0.12109 0.10938-0.41016 0.10938h-2.7227q-0.28906 0-0.41406-0.10938-0.12109-0.11328-0.12109-0.29297 0-0.17578 0.12109-0.28516 0.125-0.11328 0.41406-0.11328h0.96094v-1.9453h-0.64453q-0.28516 0-0.41016-0.10938-0.125-0.11328-0.125-0.29297 0-0.17578 0.12109-0.28516 0.125-0.11328 0.41406-0.11328zm4.5747-1.5195v4.2656h0.96094q0.28906 0 0.41016 0.11328 0.125 0.10938 0.125 0.28906 0 0.17578-0.125 0.28906-0.12109 0.10938-0.41016 0.10938h-2.7227q-0.28906 0-0.41406-0.10938-0.12109-0.11328-0.12109-0.29297 0-0.17578 0.12109-0.28516 0.125-0.11328 0.41406-0.11328h0.96094v-3.4648h-0.64453q-0.28516 0-0.41016-0.10938-0.125-0.11328-0.125-0.29297 0-0.17578 0.12109-0.28516 0.125-0.11328 0.41406-0.11328zm6.1802 3.6992h-3.2852q0.125 0.3125 0.44141 0.50391 0.32031 0.19141 0.86328 0.19141 0.44531 0 1.1836-0.19141 0.30469-0.07813 0.42188-0.07813 0.16016 0 0.26953 0.11328t0.10938 0.28516q0 0.15625-0.11719 0.26562-0.15625 0.14453-0.76172 0.27734-0.60547 0.12891-1.1641 0.12891-0.96094 0-1.5391-0.54297-0.57422-0.54297-0.57422-1.3359 0-0.84375 0.62109-1.3711 0.625-0.53125 1.4375-0.53125 0.48828 0 0.89453 0.17188 0.41016 0.17188 0.60938 0.37109 0.28125 0.28906 0.46484 0.71484 0.125 0.29688 0.125 0.6875zm-0.88672-0.80078q-0.18359-0.34375-0.48047-0.51172-0.29688-0.17188-0.70703-0.17188-0.40625 0-0.70312 0.17188-0.29688 0.16797-0.48438 0.51172z" style="white-space:pre" aria-label="IDL file"/><rect x="-36.966" y="26.581" width="94.533" height="49.503" rx="3.1734" fill="none" stroke="#adadad" stroke-width=".47453"/><path d="m307.41 14.437c-0.13657-0.25039-0.31868-0.47802-0.52354-0.59183l-10.949-6.328c-0.18211-0.11381-0.4325-0.15934-0.70565-0.15934s-0.52354 0.06829-0.70564 0.15934l-11.04 6.328c-0.38696 0.22763-0.77393 0.7967-0.77393 1.2292v12.679c0 0.25039 0.15934 0.52355 0.31868 0.77394l0.0228 0.0228c0.11381 0.1821 0.29592 0.34144 0.45526 0.43249l10.994 6.3508c0.18211 0.11381 0.45526 0.15934 0.72841 0.15934s0.52354-0.0683 0.70565-0.15934l10.812-6.3508c0.38697-0.22763 0.54631-0.7967 0.54631-1.2292v-12.679c0-0.1821 0.091-0.40973 0-0.59183zm-0.95603 0.47802c0 0.06829-0.0683 0.11381-0.0683 0.15934v12.679c0 0.1821-0.0455 0.38697-0.0911 0.45526l-10.835 6.328c-0.0228 0.0228-0.11381 0.0455-0.25039 0.0455s-0.22763-0.0228-0.25039-0.0455l-10.972-6.328s-0.0228-0.0228-0.0455-0.0228l-0.13658-0.13657c-0.091-0.15934 0.0455-0.25039-0.1821-0.27315v-12.679c0.22763-0.11381 0.20486-0.38697 0.31868-0.43249l10.994-6.3508c0.0228 0 0.13657-0.04553 0.27315-0.04553s0.22763 0.02276 0.25039 0.04553l10.926 6.3053 0.091 0.20486c0.0228 0.02276-0.0228 0.06829-0.0228 0.09105zm-11.222 0.93327c2.0714 0 3.8924 1.1381 4.8485 2.8453l2.9592-1.7072c-1.5479-2.7088-4.4615-4.5525-7.8076-4.5525-4.9623 0-8.9913 4.029-8.9913 8.9913 0 4.9623 4.029 8.9913 8.9913 8.9913 3.3234 0 6.237-1.821 7.7849-4.507l-2.9364-1.73c-0.95603 1.6844-2.777 2.8226-4.8485 2.8226-3.073 0-5.5769-2.5039-5.5769-5.5769 0-3.073 2.5039-5.5769 5.5769-5.5769z" fill="#1f2937" filter="url(#c)" stroke-width=".22763"/><text transform="translate(-57.827 -11.132)" fill="#1f2937" font-family="Monospace" font-size="6.6667px" font-weight="bold" letter-spacing="-.23px" stroke="#adadad" stroke-miterlimit="6.8" stroke-width=".5" word-spacing="0px" style="line-height:0.9;shape-inside:url(#rect6);white-space:pre" xml:space="preserve"/><text transform="translate(-127.1 -17.008)" fill="#1f2937" font-family="Monospace" font-size="6.6667px" font-weight="bold" letter-spacing="-.23px" stroke-miterlimit="6.8" stroke-width=".5" word-spacing="0px" style="line-height:1.3;shape-inside:url(#rect7);white-space:pre" xml:space="preserve"><tspan x="391.18164" y="64.149282"><tspan fill="#293649">mylib
</tspan></tspan><tspan x="391.18164" y="72.815954"><tspan fill="#293649"> include/mylib/
</tspan></tspan><tspan x="391.18164" y="81.482625"><tspan fill="#293649"> src/
</tspan></tspan><tspan x="391.18164" y="90.149297"><tspan fill="#293649"> specs/
</tspan></tspan><tspan x="391.18164" y="98.815969"><tspan fill="#293649"> CMakeLists.txt
</tspan></tspan><tspan x="391.18164" y="107.48264"><tspan fill="#293649">   </tspan><tspan fill="#59769e">idlc_compile
</tspan></tspan><tspan x="391.18164" y="116.14931"><tspan fill="#59769e"> </tspan><tspan fill="#293649">vcpkg.json
</tspan></tspan><tspan x="391.18164" y="124.81598"><tspan fill="#293649">   </tspan><tspan fill="#59769e">dependencies:[
</tspan></tspan><tspan x="391.18164" y="133.48266"><tspan fill="#59769e">     "idlc"
</tspan></tspan><tspan x="391.18164" y="142.14933"><tspan fill="#59769e">   ]</tspan></tspan></text><path d="m325.16 89.214s42.52 1.3916 44.375-18.09c1.8554-19.482-41.437-17.008-41.437-17.008" fill="none" marker-end="url(#a)" stroke="#adadad" stroke-miterlimit="6.8" stroke-width=".4989"/><path d="m363.74 53.19c7.9936-15.608 16.481-24.477 34.425-32.911" fill="none" marker-end="url(#v)" stroke="#adadad" stroke-miterlimit="6.8" stroke-width=".4989"/><text transform="translate(-122.59 -53.118)" fill="#1f2937" font-family="Monospace" font-size="13.333px" font-weight="bold" letter-spacing="-.23px" stroke-miterlimit="6.8" stroke-width=".4989" word-spacing="0px" style="line-height:1.3;shape-inside:url(#rect11);white-space:pre" xml:space="preserve"><tspan x="543.81055" y="70.189153">deb</tspan></text><rect transform="matrix(1.0484 0 0 1 369.01 14.469)" x="44.53" y="25.976" width="50" height="20" rx="3.6636" fill="#fff" filter="url(#k)"/><text transform="translate(-120.29 -16.482)" fill="#1f2937" font-family="Monospace" font-size="13.333px" font-weight="bold" letter-spacing="-.23px" stroke-miterlimit="6.8" stroke-width=".4989" word-spacing="0px" style="line-height:1.3;shape-inside:url(#rect11-3);white-space:pre" xml:space="preserve"><tspan x="543.81055" y="70.189153">conan</tspan></text><g transform="translate(-70.905 44.309)"><rect transform="matrix(1.0484 0 0 1 429.95 15.445)" x="44.53" y="25.976" width="50" height="20" rx="3.6636" fill="#fff" filter="url(#l)"/><text transform="translate(-60.515 -15.724)" fill="#1f2937" font-family="Monospace" font-size="13.333px" font-weight="bold" letter-spacing="-.23px" stroke-miterlimit="6.8" stroke-width=".4989" word-spacing="0px" style="line-height:1.3;shape-inside:url(#rect11-9);white-space:pre" xml:space="preserve"><tspan x="543.81055" y="70.189153">vcpkg</tspan></text></g><text x="332.73587" y="133.89835" fill="#293649" font-family="Monospace" font-size="13.333px" font-weight="bold" letter-spacing="-.23px" stroke-dasharray="3, 0.5" stroke-miterlimit="6.8" stroke-width=".4989" word-spacing="0px" style="line-height:1.3" xml:space="preserve"><tspan x="332.73587" y="133.89835"/></text><text transform="translate(-424.36 -30.493)" fill="#1f2937" font-family="Monospace" font-size="6.6667px" font-weight="bold" letter-spacing="-.23px" stroke-miterlimit="6.8" stroke-width=".5" word-spacing="0px" style="line-height:1;shape-inside:url(#rect7-4);white-space:pre" xml:space="preserve"><tspan x="391.18164" y="63.149282"><tspan fill="#4393c3">api</tspan> <tspan fill="#580606">MyApi</tspan> <tspan fill="#086e09">@ Description</tspan>
</tspan><tspan x="391.18164" y="69.815953">
</tspan><tspan x="391.18164" y="76.482625"><tspan fill="#4393c3">import</tspan> <tspan fill="#580606">Options</tspan>
</tspan><tspan x="391.18164" y="83.149297">
</tspan><tspan x="391.18164" y="89.815969"><tspan fill="#4393c3">interface</tspan> <tspan fill="#580606">Compiler</tspan>
</tspan><tspan x="391.18164" y="96.48264">  <tspan fill="#4393c3">method</tspan> <tspan fill="#580606">Compile</tspan> <tspan fill="#646464">{Bool}</tspan>
</tspan><tspan x="391.18164" y="103.14931">    <tspan fill="#4393c3">arg</tspan> <tspan fill="#580606">Obj</tspan> <tspan fill="#646464">{Complier}</tspan></tspan></text></g><path d="m67.059 94.807s-0.49417 18.892 5.688 45.122c5.5572 23.577 31.219 26.122 31.219 26.122" fill="none" marker-end="url(#a)" stroke="#adadad" stroke-miterlimit="6.8" stroke-width=".5"/><path d="m215.31 154.37s16.69-31.316 28.262-43.629c15.922-16.941 44.826-25.211 44.826-25.211" fill="none" marker-end="url(#q)" stroke="#adadad" stroke-miterlimit="6.8" stroke-width=".4989"/><path d="m424.39 96.979c13.241 8.6631 16.153 9.6344 33.441 12.133" fill="none" marker-end="url(#u)" stroke="#adadad" stroke-miterlimit="6.8" stroke-width=".4989"/><path d="m401.47 293.47c13.241 8.6631 36.872 16.747 55.087 17.081" fill="none" marker-end="url(#s)" stroke="#adadad" stroke-miterlimit="6.8" stroke-width=".4989"/><path d="m429.09 77.19c15.865-8.7205 23.806-10.373 36.83-12.795" fill="none" marker-end="url(#r)" stroke="#adadad" stroke-miterlimit="6.8" stroke-width=".4989"/><rect transform="matrix(1.0484 0 0 1 270.28 198.67)" x="44.53" y="25.976" width="70" height="100" rx="3.6636" fill="#fff" filter="url(#o)"/><g transform="matrix(.22096 0 0 .22096 339.51 213.06)" filter="url(#e)"><path d="m1.408 1.408h125.18v125.18h-125.18z" fill="#f0db4f"/><path d="m116.35 96.736c-0.917-5.711-4.641-10.508-15.672-14.981-3.832-1.761-8.104-3.022-9.377-5.926-0.452-1.69-0.512-2.642-0.226-3.665 0.821-3.32 4.784-4.355 7.925-3.403 2.023 0.678 3.938 2.237 5.093 4.724 5.402-3.498 5.391-3.475 9.163-5.879-1.381-2.141-2.118-3.129-3.022-4.045-3.249-3.629-7.676-5.498-14.756-5.355l-3.688 0.477c-3.534 0.893-6.902 2.748-8.877 5.235-5.926 6.724-4.236 18.492 2.975 23.335 7.104 5.332 17.54 6.545 18.873 11.531 1.297 6.104-4.486 8.08-10.234 7.378-4.236-0.881-6.592-3.034-9.139-6.949-4.688 2.713-4.688 2.713-9.508 5.485 1.143 2.499 2.344 3.63 4.26 5.795 9.068 9.198 31.76 8.746 35.83-5.176 0.165-0.478 1.261-3.666 0.38-8.581zm-46.885-37.793h-11.709l-0.048 30.272c0 6.438 0.333 12.34-0.714 14.149-1.713 3.558-6.152 3.117-8.175 2.427-2.059-1.012-3.106-2.451-4.319-4.485-0.333-0.584-0.583-1.036-0.667-1.071l-9.52 5.83c1.583 3.249 3.915 6.069 6.902 7.901 4.462 2.678 10.459 3.499 16.731 2.059 4.082-1.189 7.604-3.652 9.448-7.401 2.666-4.915 2.094-10.864 2.07-17.444 0.06-10.735 1e-3 -21.468 1e-3 -32.237z" fill="#323330"/></g><rect transform="matrix(1.0484 0 0 1 421.21 274.35)" x="44.53" y="25.976" width="50" height="20" rx="3.6636" fill="#fff" filter="url(#j)"/><text transform="translate(-62.525 242.78)" fill="#1f2937" font-family="Monospace" font-size="13.333px" font-weight="bold" letter-spacing="-.23px" stroke-miterlimit="6.8" stroke-width=".4989" word-spacing="0px" style="line-height:1.3;shape-inside:url(#rect11-3-0);white-space:pre" xml:space="preserve"><tspan x="543.81055" y="70.189153">npm</tspan></text><path d="m210.93 187.52s13.357 27.461 36.611 48.523c13.594 12.313 50.392 22.102 50.392 22.102" fill="none" marker-end="url(#p)" stroke="#adadad" stroke-miterlimit="6.8" stroke-width=".5"/><rect transform="matrix(1.0484 0 0 1 297.82 106.75)" x="44.53" y="25.976" width="80" height="30" rx="3.6636" fill="#fff" filter="url(#i)"/><text transform="translate(-193.67 79.517)" fill="#1f2937" font-family="Monospace" font-size="8px" font-weight="bold" letter-spacing="-.23px" stroke-miterlimit="6.8" stroke-width=".4989" word-spacing="0px" style="line-height:1.3;shape-inside:url(#rect11-99);white-space:pre" xml:space="preserve"><tspan x="543.81055" y="65.379135">auto-download </tspan><tspan x="543.81055" y="75.779136">hosted tool idlc
</tspan></text><text transform="translate(-70.716 190.74)" fill="#1f2937" font-family="Monospace" font-size="6.6667px" font-weight="bold" letter-spacing="-.23px" stroke-miterlimit="6.8" stroke-width=".5" word-spacing="0px" style="line-height:1.3;shape-inside:url(#rect7-3);white-space:pre" xml:space="preserve"><tspan x="391.18164" y="64.149282"><tspan fill="#293649">mylib
</tspan></tspan><tspan x="391.18164" y="72.815954"><tspan fill="#293649"> dist/
</tspan></tspan><tspan x="391.18164" y="81.482625"><tspan fill="#293649">  mylib.wasm
</tspan></tspan><tspan x="391.18164" y="90.149297"><tspan fill="#293649">  mylib.js
</tspan></tspan><tspan x="391.18164" y="98.815969"><tspan fill="#293649"> package.json
</tspan></tspan><tspan x="391.18164" y="107.48264"><tspan fill="#293649"> package-lock.json</tspan></tspan></text><rect transform="matrix(1.0484 0 0 1 336.13 207.18)" x="44.53" y="25.976" width="120" height="40" rx="3.6636" fill="#fff" filter="url(#h)"/><text transform="translate(-150.11 178.71)" fill="#1f2937" font-family="Monospace" font-size="8px" font-weight="bold" letter-spacing="-.23px" stroke-miterlimit="6.8" stroke-width=".4989" word-spacing="0px" style="line-height:1.3;shape-inside:url(#rect11-99-8);white-space:pre" xml:space="preserve"><tspan x="543.81055" y="65.379135">C lib mylib + Embind </tspan><tspan x="543.81055" y="75.779136">bindings generated IDLC </tspan><tspan x="543.81055" y="86.179138">-> mylib.wasm + mylib.js</tspan></text><path d="m386.9 249.06c-13.353 5e-3 -21.573 5.9236-25.004 13.988" fill="none" marker-end="url(#t)" stroke="#adadad" stroke-miterlimit="6.8" stroke-width=".4989"/><text transform="translate(-123.08 268.16)" fill="#1f2937" font-family="Monospace" font-size="8px" font-weight="bold" letter-spacing="-.23px" word-spacing="0px" style="line-height:1.3;shape-inside:url(#rect11-99-8-8);white-space:pre" xml:space="preserve"/><rect transform="matrix(1.0484 0 0 1 167.54 73.962)" x="44.53" y="25.976" width="60" height="30" rx="3.6636" fill="#fff" filter="url(#g)"/><text transform="translate(-321.17 46.111)" fill="#1f2937" font-family="Monospace" font-size="8px" font-weight="bold" letter-spacing="-.23px" stroke-miterlimit="6.8" stroke-width=".4989" word-spacing="0px" style="line-height:1.3;shape-inside:url(#rect11-99-8-2);white-space:pre" xml:space="preserve"><tspan x="543.81055" y="65.379135">Generate C </tspan><tspan x="543.81055" y="75.779136">headers</tspan></text><rect transform="matrix(1.0484 0 0 1 164.91 192.3)" x="44.53" y="25.976" width="70" height="30" rx="3.6636" fill="#fff" filter="url(#f)"/><text transform="translate(-325.34 165.07)" fill="#1f2937" font-family="Monospace" font-size="8px" font-weight="bold" letter-spacing="-.23px" stroke-miterlimit="6.8" stroke-width=".4989" word-spacing="0px" style="line-height:1.3;shape-inside:url(#rect11-99-8-2-8);white-space:pre" xml:space="preserve"><tspan x="543.81055" y="65.379135">Generate </tspan><tspan x="543.81055" y="75.779136">Embind for JS</tspan></text></svg>
