<?xml version="1.0" encoding="UTF-8" standalone="no"?>
<svg
   width="100"
   height="100"
   viewBox="0 0 100 100"
   version="1.1"
   id="root"
   xmlns="http://www.w3.org/2000/svg"
   xmlns:svg="http://www.w3.org/2000/svg">
  <defs>
    <filter
       style="color-interpolation-filters:sRGB;"
       id="shadow"
       x="-0.034188026"
       y="-0.034188026"
       width="1.0683761"
       height="1.0683761">
      <feFlood
         result="flood"
         in="SourceGraphic"
         flood-opacity="0.5"
         flood-color="rgb(0,0,0)" />
      <feGaussianBlur
         result="blur"
         in="SourceGraphic"
         stdDeviation="1.282051" />
      <feComposite
         result="comp1"
         operator="in"
         in="flood" />
      <feComposite
         result="comp2"
         operator="over"
         in="SourceGraphic" />
    </filter>
  </defs>
  <g id="logo">
    <rect
       style="fill:#a74646;filter:url(#shadow)"
       width="90"
       height="90"
       x="5"
       y="5"
       rx="10" />
    <g style="fill:#1c1c1c" transform="translate(-0.17007874,5.3606299)">
      <path style="fill:#333333"
         d="m 15.458008,48.753164 v -22.90625 h 4.625 v 22.90625 z m 9.015625,-22.90625 h 8.453125 q 2.859375,0 4.359375,0.4375 2.015625,0.59375 3.453125,2.109375 1.4375,1.515625 2.1875,3.71875 0.75,2.1875 0.75,5.40625 0,2.828125 -0.703125,4.875 -0.859375,2.5 -2.453125,4.046875 -1.203125,1.171875 -3.25,1.828125 -1.53125,0.484375 -4.09375,0.484375 h -8.703125 z m 4.625,3.875 v 15.171875 h 3.453125 q 1.9375,0 2.796875,-0.21875 1.125,-0.28125 1.859375,-0.953125 0.75,-0.671875 1.21875,-2.203125 0.46875,-1.546875 0.46875,-4.203125 0,-2.65625 -0.46875,-4.078125 -0.46875,-1.421875 -1.3125,-2.21875 -0.84375,-0.796875 -2.140625,-1.078125 -0.96875,-0.21875 -3.796875,-0.21875 z m 18.625,19.03125 v -22.71875 h 4.625 v 18.859375 h 11.5 v 3.859375 z" />
      <path style="fill:#cccccc"
         d="m 81.801758,40.331289 4.484375,1.421875 q -1.03125,3.75 -3.4375,5.578125 -2.390625,1.8125 -6.078125,1.8125 -4.5625,0 -7.5,-3.109375 -2.9375,-3.125 -2.9375,-8.53125 0,-5.71875 2.953125,-8.875 2.953125,-3.171875 7.765625,-3.171875 4.203125,0 6.828125,2.484375 1.5625,1.46875 2.34375,4.21875 l -4.578125,1.09375 q -0.40625,-1.78125 -1.703125,-2.8125 -1.28125,-1.03125 -3.125,-1.03125 -2.546875,0 -4.140625,1.828125 -1.578125,1.828125 -1.578125,5.921875 0,4.34375 1.5625,6.1875 1.5625,1.84375 4.0625,1.84375 1.84375,0 3.171875,-1.171875 1.328125,-1.171875 1.90625,-3.6875 z" />
    </g>
    <path style="fill:#cccccc" transform="matrix(1,0,0,0.64444487,1.2026383,12.732024)"
       d="m 21.410332,77.262226 1.2946,0.326987 q -0.407065,1.594893 -1.468103,2.435716 -1.054364,0.834149 -2.582526,0.834149 -1.581547,0 -2.575852,-0.640627 -0.987633,-0.6473 -1.508142,-1.868494 -0.513836,-1.221194 -0.513836,-2.622565 0,-1.528161 0.580568,-2.662604 0.587241,-1.141116 1.661625,-1.728357 1.081057,-0.593915 2.375657,-0.593915 1.468102,0 2.469081,0.747398 1.000979,0.747398 1.394698,2.102056 l -1.27458,0.300294 Q 20.923189,72.824553 20.275889,72.33741 19.62859,71.850266 18.64763,71.850266 q -1.12777,0 -1.888514,0.540529 -0.754071,0.540529 -1.061037,1.454756 -0.306967,0.907555 -0.306967,1.875168 0,1.247887 0.360352,2.182134 0.367026,0.927574 1.134443,1.388024 0.767417,0.460451 1.661625,0.460451 1.087731,0 1.841802,-0.627281 0.75407,-0.62728 1.020998,-1.861821 z m 2.495775,-1.334638 q 0,-2.435716 1.307946,-3.810394 1.307946,-1.381351 3.376636,-1.381351 1.354658,0 2.442389,0.6473 1.08773,0.6473 1.654952,1.808435 0.573894,1.154463 0.573894,2.622565 0,1.488123 -0.600587,2.662605 -0.600587,1.174482 -1.701664,1.781742 -1.101077,0.600588 -2.375657,0.600588 -1.381351,0 -2.469082,-0.66732 -1.08773,-0.667319 -1.648279,-1.821781 -0.560548,-1.154463 -0.560548,-2.442389 z m 1.334639,0.02002 q 0,1.768397 0.947593,2.789395 0.954267,1.014326 2.389004,1.014326 1.461429,0 2.402349,-1.027672 0.947594,-1.027672 0.947594,-2.916186 0,-1.194501 -0.407065,-2.082036 -0.400392,-0.894208 -1.181155,-1.381351 -0.774091,-0.493817 -1.741704,-0.493817 -1.374678,0 -2.368984,0.947594 -0.987632,0.94092 -0.987632,3.149747 z m 9.649436,4.744641 v -9.782902 h 1.948573 l 2.315598,6.926775 q 0.320313,0.967613 0.467123,1.448083 0.16683,-0.533855 0.52051,-1.5682 l 2.34229,-6.806658 h 1.741704 v 9.782902 h -1.247887 v -8.188009 l -2.842781,8.188009 h -1.167809 l -2.829434,-8.328146 v 8.328146 z m 11.424507,0 v -9.782902 h 3.690276 q 0.974287,0 1.488123,0.09342 0.720705,0.120117 1.207848,0.46045 0.487143,0.33366 0.780763,0.940921 0.300294,0.60726 0.300294,1.334638 0,1.247887 -0.79411,2.115403 -0.79411,0.860842 -2.869473,0.860842 h -2.509121 v 3.977223 z m 1.2946,-5.131686 h 2.52914 q 1.254561,0 1.781743,-0.467123 0.527182,-0.467124 0.527182,-1.31462 0,-0.613933 -0.31364,-1.047691 -0.306967,-0.440431 -0.814129,-0.580568 -0.326987,-0.08675 -1.207848,-0.08675 h -2.502448 z m 8.041197,5.131686 v -9.782902 h 1.2946 v 9.782902 z m 3.52345,0 v -9.782902 h 1.294599 v 8.628439 h 4.818046 v 1.154463 z m 7.680843,0 v -9.782902 h 7.073586 v 1.154463 h -5.778986 v 2.996264 h 5.41196 v 1.147789 h -5.41196 v 3.329923 h 6.005874 v 1.154463 z m 9.108909,0 v -9.782902 h 4.337576 q 1.307945,0 1.988611,0.266928 0.680666,0.260254 1.087731,0.927574 0.407065,0.667319 0.407065,1.474776 0,1.041018 -0.673993,1.755049 -0.673993,0.714032 -2.082036,0.907555 0.513836,0.246908 0.780763,0.487143 0.567222,0.520509 1.074384,1.301273 l 1.701665,2.662604 h -1.628259 l -1.2946,-2.035324 q -0.567221,-0.880862 -0.934247,-1.347985 -0.367026,-0.467124 -0.660646,-0.653973 -0.286948,-0.18685 -0.587241,-0.260255 -0.220216,-0.04671 -0.720705,-0.04671 h -1.501469 v 4.344249 z m 1.294599,-5.465346 h 2.782722 q 0.887535,0 1.388024,-0.180176 0.50049,-0.186849 0.760744,-0.587241 0.260255,-0.407065 0.260255,-0.880861 0,-0.694013 -0.507163,-1.141117 -0.500489,-0.447103 -1.58822,-0.447103 h -3.096362 z" />
  </g>
</svg>
