<?xml version="1.0" encoding="UTF-8" standalone="no"?>
<svg
   width="100"
   height="100"
   viewBox="0 0 100 100"
   version="1.1"
   id="root"
   sodipodi:docname="safari-pinned-tab.svg"
   inkscape:export-filename="icons\web-app-manifest-512x512.png"
   inkscape:export-xdpi="491.51999"
   inkscape:export-ydpi="491.51999"
   inkscape:version="1.3.2 (091e20e, 2023-11-25, custom)"
   xmlns:inkscape="http://www.inkscape.org/namespaces/inkscape"
   xmlns:sodipodi="http://sodipodi.sourceforge.net/DTD/sodipodi-0.dtd"
   xmlns="http://www.w3.org/2000/svg"
   xmlns:svg="http://www.w3.org/2000/svg">
  <sodipodi:namedview
     id="namedview3"
     pagecolor="#ffffff"
     bordercolor="#000000"
     borderopacity="0.25"
     inkscape:showpageshadow="2"
     inkscape:pageopacity="0.0"
     inkscape:pagecheckerboard="0"
     inkscape:deskcolor="#d1d1d1"
     inkscape:zoom="4.5475"
     inkscape:cx="89.609676"
     inkscape:cy="96.206707"
     inkscape:window-width="3840"
     inkscape:window-height="2054"
     inkscape:window-x="-11"
     inkscape:window-y="-11"
     inkscape:window-maximized="1"
     inkscape:current-layer="logo" />
  <defs
     id="defs2">
    <filter
       style="color-interpolation-filters:sRGB;"
       id="shadow"
       x="-0.034188026"
       y="-0.034188026"
       width="1.0683761"
       height="1.0683761">
      <feFlood
         result="flood"
         in="SourceGraphic"
         flood-opacity="0.5"
         flood-color="rgb(0,0,0)"
         id="feFlood1" />
      <feGaussianBlur
         result="blur"
         in="SourceGraphic"
         stdDeviation="1.282051"
         id="feGaussianBlur1" />
      <feComposite
         result="comp1"
         operator="in"
         in="flood"
         id="feComposite1" />
      <feComposite
         result="comp2"
         operator="over"
         in="SourceGraphic"
         id="feComposite2" />
    </filter>
  </defs>
  <g
     id="logo">
    <g
       style="fill:#000000;fill-opacity:1"
       transform="translate(-0.17007874,10.3606299)"
       id="g3">
      <path
         id="path2"
         style="fill:#000000;fill-opacity:1"
         d="M 77.050938 25.455776 C 73.842608 25.455776 71.254061 26.51307 69.285313 28.627651 C 67.316565 30.731816 66.332188 33.690155 66.332188 37.502651 C 66.332188 41.106814 67.311357 43.95057 69.269688 46.033901 C 71.228019 48.106816 73.728024 49.143276 76.769688 49.143276 C 79.228019 49.143276 81.254065 48.539108 82.847813 47.330776 C 84.451978 46.112028 85.597814 44.252649 86.285313 41.752651 L 81.800938 40.330776 C 81.415522 42.007858 80.780104 43.237027 79.894688 44.018276 C 79.009272 44.799526 77.951979 45.190151 76.722813 45.190151 C 75.056148 45.190151 73.701979 44.575567 72.660313 43.346401 C 71.618647 42.117236 71.097813 40.054732 71.097813 37.158901 C 71.097813 34.429737 71.623856 32.455775 72.675938 31.237026 C 73.738437 30.018278 75.118648 29.408901 76.816563 29.408901 C 78.045729 29.408901 79.087397 29.752652 79.941563 30.440151 C 80.806146 31.127651 81.373855 32.065153 81.644688 33.252651 L 86.222813 32.158901 C 85.70198 30.32557 84.920729 28.919317 83.879063 27.940151 C 82.129065 26.283903 79.853019 25.455776 77.050938 25.455776 z M 15.457188 25.846401 L 15.457188 48.752651 L 20.082188 48.752651 L 20.082188 25.846401 L 15.457188 25.846401 z M 24.472813 25.846401 L 24.472813 48.752651 L 33.175938 48.752651 C 34.88427 48.752651 36.248856 48.591193 37.269688 48.268276 C 38.63427 47.830777 39.717606 47.221401 40.519688 46.440151 C 41.582187 45.408902 42.399897 44.059941 42.972813 42.393276 C 43.441563 41.028694 43.675938 39.403691 43.675938 37.518276 C 43.675938 35.372445 43.425938 33.570358 42.925938 32.112026 C 42.425939 30.643278 41.69677 29.403692 40.738438 28.393276 C 39.780106 27.382861 38.629062 26.679734 37.285313 26.283901 C 36.285314 25.992235 34.832186 25.846401 32.925938 25.846401 L 24.472813 25.846401 z M 47.722813 26.033901 L 47.722813 48.752651 L 63.847813 48.752651 L 63.847813 44.893276 L 52.347813 44.893276 L 52.347813 26.033901 L 47.722813 26.033901 z M 29.097813 29.721401 L 31.175938 29.721401 C 33.061353 29.721401 34.32698 29.794318 34.972813 29.940151 C 35.837396 30.127651 36.550939 30.487027 37.113438 31.018276 C 37.675938 31.549526 38.113438 32.289111 38.425938 33.237026 C 38.738438 34.184942 38.894688 35.54432 38.894688 37.315151 C 38.894688 39.085983 38.738438 40.487027 38.425938 41.518276 C 38.113438 42.539109 37.707188 43.273485 37.207188 43.721401 C 36.717605 44.169318 36.097812 44.487027 35.347813 44.674526 C 34.774897 44.82036 33.842603 44.893276 32.550938 44.893276 L 29.097813 44.893276 L 29.097813 29.721401 z " />
    </g>
  </g>
</svg>
